<?xml version="1.0" encoding="UTF-8" standalone="no"?>
<!-- Created with Inkscape (http://www.inkscape.org/) -->

<svg
   xmlns:dc="http://purl.org/dc/elements/1.1/"
   xmlns:cc="http://creativecommons.org/ns#"
   xmlns:rdf="http://www.w3.org/1999/02/22-rdf-syntax-ns#"
   xmlns:svg="http://www.w3.org/2000/svg"
   xmlns="http://www.w3.org/2000/svg"
   xmlns:sodipodi="http://sodipodi.sourceforge.net/DTD/sodipodi-0.dtd"
   xmlns:inkscape="http://www.inkscape.org/namespaces/inkscape"
   id="svg3055"
   version="1.1"
   inkscape:version="0.48.0 r9654"
   width="32"
   height="32"
   sodipodi:docname="PitchTrainer.svg">
  <metadata
     id="metadata3061">
    <rdf:RDF>
      <cc:Work
         rdf:about="">
        <dc:format>image/svg+xml</dc:format>
        <dc:type
           rdf:resource="http://purl.org/dc/dcmitype/StillImage" />
        <dc:title />
      </cc:Work>
    </rdf:RDF>
  </metadata>
  <defs
     id="defs3059" />
  <sodipodi:namedview
     pagecolor="#ffffff"
     bordercolor="#666666"
     borderopacity="1"
     objecttolerance="10"
     gridtolerance="10"
     guidetolerance="10"
     inkscape:pageopacity="0"
     inkscape:pageshadow="2"
     inkscape:window-width="1440"
     inkscape:window-height="824"
     id="namedview3057"
     showgrid="false"
     inkscape:zoom="18.78125"
     inkscape:cx="16.106489"
     inkscape:cy="19.460898"
     inkscape:window-x="0"
     inkscape:window-y="25"
     inkscape:window-maximized="1"
     inkscape:current-layer="svg3055" />
  <path
     style="fill:#000000"
     id="path3085"
     d="m 2.9733647,3.7077538 c 0.1007975,-9.757e-4 0.2083042,0.010479 0.3070891,-0.016917 0.044269,-0.012277 0.083762,-0.037776 0.1260195,-0.055798 C 3.3636641,3.655732 3.5493686,3.5488454 3.51316,3.5695759 3.3033581,3.689694 3.0946239,3.8116864 2.8840567,3.9304578 c -0.016304,0.0092 0.029906,-0.022686 0.046117,-0.032046 C 3.7706788,3.4131514 3.4139444,3.6378103 3.6987447,3.4577094 3.7970915,3.4118227 3.8972524,3.3745946 4.0046436,3.3553391 4.1401215,3.3362662 4.277481,3.3371428 4.4140195,3.3357166 4.5357397,3.3013075 4.6699698,3.3201148 4.7857822,3.2701773 4.9100256,3.217398 5.0430008,3.1866293 5.1728159,3.1498098 5.3966616,3.1122685 5.6095025,3.0322626 5.8288362,2.976586 c 0.034377,-0.00751 0.069477,-0.012265 0.1031321,-0.022542 0.036592,-0.011174 0.1190598,-0.051781 0.1564704,-0.066637 0.070299,-0.027918 0.1408343,-0.045423 0.2148774,-0.05948 0.1438318,-0.024248 0.2900543,-0.023785 0.4354404,-0.024987 0.1480239,-5.713e-4 0.2960468,6.468e-4 0.4440716,6.841e-4 0.1594264,0.031652 0.3099894,0.093779 0.4632131,0.1460755 0.1180126,0.049189 0.2346159,0.1059227 0.3579271,0.1406071 0.1313858,0.028576 0.2669271,0.041866 0.3936383,0.087367 0.151998,0.069149 0.293644,0.157532 0.4384141,0.2401261 0.1370206,0.085878 0.2564435,0.1960465 0.389229,0.288232 0.1176132,0.094008 0.2239011,0.2011867 0.3341342,0.3038014 0.1258848,0.1108189 0.2371846,0.2357677 0.3474448,0.3618871 0.1213023,0.1438504 0.2137043,0.3126665 0.2927323,0.4830981 0.04715,0.1427334 0.144938,0.2581286 0.205482,0.3937124 0.04365,0.118791 0.08012,0.2390174 0.09844,0.3643269 0.01397,0.1660211 0.07032,0.3253605 0.112244,0.4859169 0.0423,0.155869 0.05171,0.3172908 0.07383,0.4766143 0.02312,0.1705035 0.03312,0.3423176 0.03933,0.51414 0.0043,0.1591073 0.004,0.3182541 0.0032,0.4773983 -5.45e-4,0.1577476 2.03e-4,0.3154904 0.0011,0.4732353 8.74e-4,0.1594066 -0.0017,0.318807 -0.0028,0.4782073 -9e-4,0.1891675 2.17e-4,0.3783214 0.0019,0.5674819 0.0012,0.1426306 2.31e-4,0.285266 6.68e-4,0.4279001 2.37e-4,0.1478769 -6.77e-4,0.2957521 -6.5e-4,0.4436283 -4.49e-4,0.1743041 -8.24e-4,0.3486051 -0.0013,0.5229101 -0.0027,0.188694 0.0051,0.377463 -0.0049,0.565962 -0.01413,0.149005 -0.03113,0.297584 -0.03932,0.447074 -0.0089,0.144412 -0.02289,0.290523 -0.05417,0.431952 -0.04358,0.132761 -0.08722,0.26554 -0.121054,0.401183 -0.04768,0.139414 -0.09626,0.27902 -0.153488,0.4149 -0.05528,0.107952 -0.119564,0.211173 -0.180168,0.316438 -0.04105,0.09756 -0.09694,0.187809 -0.138173,0.285191 -0.06168,0.16983 -0.118818,0.340915 -0.184749,0.509246 -0.054304,0.153381 -0.1278535,0.299882 -0.2260405,0.429754 -0.084568,0.07786 -0.1564057,0.154273 -0.2075374,0.257902 -0.063623,0.111958 -0.1257412,0.224377 -0.1753066,0.343451 -0.069782,0.121311 -0.1311746,0.246896 -0.1964419,0.370844 -0.077125,0.147462 -0.1579837,0.292059 -0.2490168,0.431376 -0.084274,0.141642 -0.1587255,0.289351 -0.2325755,0.43672 -0.082673,0.1458 -0.1699336,0.287299 -0.2380358,0.440652 -0.049551,0.124014 -0.090308,0.251028 -0.1369177,0.376287 -0.039542,0.119319 -0.093069,0.230888 -0.1502135,0.342267 -0.05605,0.108231 -0.1031298,0.220941 -0.138809,0.337458 -0.020517,0.117131 -0.084433,0.2181 -0.1177519,0.331093 -0.032618,0.09897 -0.061546,0.197591 -0.076144,0.300894 -0.01199,0.118461 -0.011037,0.237685 -0.012295,0.356598 0.00705,0.123096 9.133e-4,0.238247 -0.040664,0.354486 -0.044301,0.101588 -0.091186,0.201624 -0.1490985,0.296288 -0.064879,0.08474 -0.1004562,0.186142 -0.1377832,0.284998 -0.038968,0.106112 -0.034153,0.220097 -0.052569,0.330014 -0.045119,0.133276 -0.070111,0.271316 -0.099804,0.408501 -0.033203,0.164194 -0.043652,0.331783 -0.049727,0.498836 -0.0031,0.13174 -0.00295,0.26354 -0.00293,0.395311 8.408e-4,0.124058 6.856e-4,0.248113 5.954e-4,0.372172 6.227e-4,0.124111 2.713e-4,0.248218 8.57e-5,0.372329 -6.805e-4,0.139732 0.00567,0.279485 -0.01131,0.418341 -0.032697,0.162528 -0.079592,0.324244 -0.156738,0.471357 -0.1101879,0.145175 -0.2221666,0.289642 -0.3371136,0.431183 -0.098736,0.120826 -0.2062832,0.2315 -0.3242148,0.333524 -0.1649208,0.117483 -0.3180874,0.249891 -0.4866918,0.362148 -0.2492238,0.14363 -0.4962285,0.291181 -0.7476715,0.43089 -0.02612,0.01451 -0.056361,0.01994 -0.084028,0.03122 -0.024668,0.01006 -0.095896,0.04623 -0.072891,0.03279 0.2011244,-0.117467 0.4045862,-0.230893 0.6075887,-0.345084 0.020831,-0.01172 -0.040737,0.02501 -0.06103,0.03764 -0.021471,0.01336 -0.042841,0.02688 -0.064262,0.04033 -0.3464826,0.263848 -0.7059306,0.41605 -1.0900306,0.578057 -0.2201303,0.08987 -0.4408565,0.179998 -0.6596505,0.273576 -0.1776259,0.0787 -0.3659712,0.112537 -0.5580681,0.128182 -0.1511203,0.0092 -0.3026453,0.0067 -0.4539625,0.0064 C 2.5264797,25.144331 2.398134,25.100326 2.2711701,25.046782 2.1676855,24.978347 2.0842228,24.887322 1.9925287,24.804976 1.8977467,24.714191 1.8061586,24.620929 1.7158794,24.525412 1.622412,24.426445 1.5718996,24.306777 1.5391293,24.176714 1.5003564,24.088161 1.4468054,23.99683 1.3902817,23.918493 c -0.059432,-0.0787 -0.1076404,-0.16454 -0.1611837,-0.246959 -0.025573,-0.04048 -0.040102,-0.08446 -0.06494,-0.125405 0,0 0.6827599,-0.396299 0.6827599,-0.396299 l 0,0 c 0.024894,0.0408 0.042481,0.08177 0.065376,0.123359 0.051301,0.08223 0.099104,0.166639 0.1574585,0.244411 0.062763,0.08935 0.1205157,0.184437 0.1625711,0.285485 0.025775,0.118683 0.069936,0.224114 0.1558977,0.312748 0.088994,0.09346 0.1783256,0.186338 0.2723367,0.274685 0.085706,0.07651 0.1644546,0.162226 0.2661978,0.218434 0.1197294,0.04932 0.2442813,0.08098 0.3747893,0.08051 0.1493636,6.59e-4 0.2990324,0.0015 0.4479598,-0.01169 0.1860157,-0.02093 0.3664493,-0.06541 0.5380044,-0.142161 0.2230761,-0.09057 0.4429074,-0.188487 0.6662245,-0.278404 0.2941272,-0.118752 0.9372112,-0.46837 -0.2580567,0.191409 0.2866228,-0.177704 0.5517619,-0.32819 0.8644746,-0.50351 0.048155,-0.027 0.1982321,-0.09668 0.1508792,-0.0683 -0.1949685,0.116852 -0.3927607,0.228927 -0.5891411,0.34339 0.1726708,-0.105627 0.3231764,-0.237963 0.4886835,-0.353535 0.123059,-0.09268 0.2305189,-0.201197 0.3268607,-0.32122 0.1269881,-0.127134 0.2196168,-0.287209 0.3426994,-0.418869 0.095858,-0.126864 0.1287006,-0.291689 0.1704139,-0.442912 0.026948,-0.133571 0.00938,-0.270179 0.014172,-0.405912 -1.93e-4,-0.124089 -5.499e-4,-0.248176 -8.35e-5,-0.372267 -2.756e-4,-0.12407 -8.011e-4,-0.248139 -4.502e-4,-0.372211 -2.813e-4,-0.132985 -8.379e-4,-0.265989 0.00366,-0.398925 0.00598,-0.170934 0.017446,-0.341633 0.043892,-0.510806 0.027529,-0.137426 0.047525,-0.277433 0.09609,-0.409299 0.035695,-0.108292 0.011782,-0.2262 0.047467,-0.335861 0.031049,-0.100132 0.075802,-0.217109 0.1298525,-0.305606 0.068253,-0.08554 0.1045547,-0.183285 0.1563939,-0.277549 0.016479,-0.043 0.04774,-0.09423 0.054966,-0.139745 0.00984,-0.062 -0.00784,-0.128393 -2.334e-4,-0.19071 -6.973e-4,-0.121181 2.519e-4,-0.242463 0.0076,-0.36346 0.00813,-0.107286 0.02833,-0.212075 0.071707,-0.31128 0.013087,-0.05957 0.026076,-0.114835 0.052944,-0.169937 0.016254,-0.03333 0.040121,-0.0632 0.052149,-0.09828 0.00714,-0.02083 0.00853,-0.0432 0.012794,-0.06481 0.030555,-0.121059 0.073913,-0.238966 0.1322473,-0.34956 0.018209,-0.04084 0.030428,-0.07202 0.054038,-0.110129 0.00952,-0.01537 0.023704,-0.02781 0.03165,-0.04405 0.028027,-0.05729 0.034135,-0.126568 0.069012,-0.181494 0.044755,-0.128008 0.09393,-0.253238 0.1356405,-0.382196 0.069761,-0.154328 0.1427203,-0.304581 0.2400453,-0.444294 0.071226,-0.150711 0.150471,-0.296523 0.2251234,-0.445388 0.094622,-0.136326 0.1809426,-0.276729 0.2529183,-0.426547 0.071597,-0.116802 0.107392,-0.252682 0.1975455,-0.358465 0.043125,-0.121435 0.099088,-0.242026 0.1740623,-0.346892 0.04682,-0.120285 0.092038,-0.203736 0.1968701,-0.281882 0.1190432,-0.103738 0.1858412,-0.262924 0.2443178,-0.406173 0.066554,-0.165996 0.1258898,-0.333286 0.177769,-0.504332 0.017722,-0.05372 0.035588,-0.108955 0.066538,-0.156976 0.00833,-0.01293 0.021831,-0.02234 0.028827,-0.03605 0.016662,-0.03264 0.014088,-0.07318 0.037875,-0.103198 0.058159,-0.106377 0.1202291,-0.209827 0.18333,-0.312289 0.068985,-0.127105 0.1019567,-0.269246 0.1623844,-0.400351 0.030432,-0.137202 0.069202,-0.272724 0.1193648,-0.404033 0.046043,-0.131747 0.046134,-0.27821 0.06116,-0.416167 0.00794,-0.150656 0.021991,-0.300572 0.042453,-0.450078 0.01636,-0.186445 0.0044,-0.374293 0.0078,-0.561296 -4.5e-4,-0.173872 -8.25e-4,-0.34774 -0.0013,-0.521611 2.7e-5,-0.147656 -8.87e-4,-0.29531 -6.5e-4,-0.4429658 4.36e-4,-0.1428604 -5.17e-4,-0.285722 6.65e-4,-0.428579 0.0016,-0.1897938 0.0028,-0.3795812 0.0019,-0.5693819 -0.001,-0.1584942 -0.0037,-0.3169901 -0.0026,-0.4754904 0.0011,-0.1582339 0.0021,-0.3164658 0.0018,-0.4747043 -7.12e-4,-0.1582667 -3.54e-4,-0.3165516 -0.0031,-0.4747977 -0.004,-0.1692554 -0.01115,-0.3387552 -0.034894,-0.5065768 C 9.9734344,6.7842777 9.9630479,6.6258746 9.9278074,6.4711246 9.8874226,6.3075784 9.8251017,6.1475655 9.8069948,5.9799124 9.7914767,5.8610895 9.7592037,5.7474252 9.7190695,5.634591 9.6605895,5.4987411 9.5642398,5.3821093 9.5188836,5.2394414 9.4439828,5.0750375 9.3544588,4.9138371 9.2372633,4.7758259 9.1286419,4.6512541 9.0146761,4.5323603 8.890746,4.4229346 8.7828828,4.3228053 8.6810825,4.2160442 8.5640728,4.1264676 8.4352933,4.0323276 8.3138718,3.9274895 8.1768652,3.8451987 8.038823,3.7619305 7.9005803,3.6764309 7.7490142,3.6196791 7.6180488,3.5858284 7.4831011,3.5700871 7.3527482,3.5335483 7.2318956,3.4912027 7.11502,3.4381814 6.9968599,3.388989 6.850497,3.3373281 6.7033104,3.2771875 6.5471797,3.2651885 6.3995051,3.2644321 6.2518239,3.2639921 6.1041509,3.2652857 5.9616168,3.2678695 5.8180428,3.2716059 5.6784942,3.3038448 5.5206896,3.3468414 5.3733663,3.4211759 5.2113786,3.4499706 4.9917194,3.5100156 4.7746808,3.5792864 4.5520028,3.6280084 4.4211777,3.666226 4.2904642,3.7045817 4.1623137,3.7510649 c -0.1265843,0.022349 -0.2554029,0.037073 -0.3834141,0.047428 -0.1342162,0.00229 -0.2698128,0.00401 -0.4012905,0.034156 -0.1017595,0.028239 -0.2004759,0.069784 -0.2925529,0.1214898 -0.2623116,0.134245 -0.040023,0.02152 0.5803984,-0.3407984 0.015803,-0.00923 -0.032271,0.017288 -0.04803,0.02659 -0.262095,0.1547067 -0.5402588,0.3483829 -0.8291379,0.4804427 -0.1469394,0.052441 -0.2996928,0.053405 -0.4545152,0.052072 0,0 0.6395937,-0.464692 0.6395937,-0.464692 z"
     inkscape:connector-curvature="0" />
  <path
     style="fill:#000000"
     id="path3087"
     d="m 4.6065972,9.3711407 c 0.1323836,-0.061812 0.2569243,-0.1360523 0.3975032,-0.179548 0.1236857,-0.062735 0.2557683,-0.087142 0.3924956,-0.097856 0.1493385,-0.013246 0.2968413,-0.00858 0.4450045,0.01108 0.1200494,0.033357 0.2429212,0.056719 0.3512365,0.1205621 0.1106649,0.050043 0.1834999,0.158129 0.256468,0.2515162 0.072918,0.088975 0.1373772,0.1815913 0.2174186,0.2644333 0.070305,0.082933 0.1427882,0.1609151 0.1977373,0.2552614 0.07015,0.091511 0.1039577,0.1972121 0.1318743,0.3070711 0.034187,0.138103 0.048617,0.279375 0.056958,0.421017 0.00768,0.15571 0.00525,0.311711 0.00488,0.467558 0.00656,0.195624 -0.026252,0.387828 -0.060072,0.57947 -0.035728,0.148917 -0.105813,0.285897 -0.1508672,0.431719 -0.040565,0.134931 -0.1173347,0.253732 -0.1666927,0.384926 -0.031251,0.09897 -0.074891,0.189591 -0.130115,0.276832 -0.046526,0.09142 -0.081012,0.187563 -0.116983,0.283305 -0.052788,0.115761 -0.09803,0.234769 -0.1484865,0.351587 -0.065617,0.116984 -0.1178331,0.238266 -0.1608663,0.364995 -0.08897,0.181183 -0.1602786,0.369908 -0.2425841,0.554166 -0.073202,0.174605 -0.1557042,0.343898 -0.2585859,0.502929 -0.068374,0.09417 -0.1617734,0.162471 -0.2299266,0.25674 -0.090358,0.144701 -0.1882673,0.284239 -0.2767849,0.430085 -0.075088,0.121761 -0.1157281,0.259944 -0.1866919,0.383479 -0.066335,0.09439 -0.082164,0.205572 -0.1023748,0.315901 -0.029966,0.102985 -0.043406,0.208469 -0.050837,0.315116 -0.00654,0.121263 -0.00679,0.24273 -0.00672,0.364131 -2.412e-4,0.126504 1.07e-5,0.253007 4.83e-4,0.379511 0.00702,0.129359 -0.038613,0.2501 -0.0974,0.362726 -0.053917,0.100886 -0.1417734,0.170735 -0.2327148,0.236341 -0.014917,0.01245 -0.029834,0.0249 -0.044751,0.03735 0,0 -0.7310909,0.294326 -0.7310909,0.294326 l 0,0 c 0.015108,-0.01211 0.030216,-0.02423 0.045324,-0.03634 0.076791,-0.07486 0.1859117,-0.116307 0.2411862,-0.213545 0.069706,-0.09147 0.1193542,-0.207186 0.1176848,-0.323216 2.523e-4,-0.126576 1.093e-4,-0.253149 -3.255e-4,-0.379722 2.221e-4,-0.122677 -9.929e-4,-0.245425 0.00395,-0.368027 0.0057,-0.109739 0.010986,-0.220898 0.044069,-0.3265 0.032257,-0.112571 0.026691,-0.237264 0.093088,-0.339129 0.021583,-0.03377 0.04834,-0.06453 0.065953,-0.100538 0.045124,-0.09224 0.06989,-0.19626 0.1243608,-0.284839 0.08879,-0.144477 0.1817754,-0.285587 0.2738006,-0.427713 0.053498,-0.109344 0.136457,-0.184425 0.2297216,-0.260635 0.1054572,-0.157347 0.2040388,-0.316943 0.271804,-0.495219 0.032934,-0.07248 0.068546,-0.143805 0.098879,-0.217416 0.045041,-0.109304 0.070743,-0.227402 0.1352356,-0.328051 0.053258,-0.122604 0.080558,-0.257073 0.1608942,-0.367892 0.048977,-0.117761 0.1015729,-0.233872 0.1456697,-0.353633 0.027485,-0.04653 0.034169,-0.09067 0.053332,-0.140688 0.053556,-0.139787 -0.014077,0.04583 0.043614,-0.09141 0.00742,-0.01765 0.012234,-0.03629 0.018351,-0.05444 0.02303,-0.05242 0.0157,-0.04579 0.049708,-0.08766 0.00916,-0.01128 0.02211,-0.01973 0.029104,-0.03248 0.024556,-0.04474 0.025951,-0.104251 0.058099,-0.146294 0.04208,-0.135291 0.1155748,-0.252645 0.1709053,-0.382422 0.038687,-0.147103 0.1013233,-0.28364 0.1558424,-0.425481 0.034622,-0.187422 0.077096,-0.374851 0.066341,-0.566966 -3.646e-4,-0.15417 -8.034e-4,-0.308356 -0.00572,-0.462465 -0.0064,-0.136236 -0.017179,-0.272857 -0.051187,-0.405444 C 6.2749121,10.57745 6.2503301,10.476561 6.1825788,10.390882 6.1303873,10.302537 6.0569315,10.232096 5.9931497,10.15218 5.9120794,10.067089 5.8483659,9.9704843 5.773539,9.8801414 5.7045283,9.7934606 5.6372038,9.7012025 5.5316483,9.6575108 5.4273363,9.607447 5.3140416,9.5810562 5.2009459,9.5588386 5.0561502,9.5438133 4.9106074,9.5473146 4.7658449,9.5627572 4.63348,9.5819419 4.5086521,9.6212894 4.3856646,9.6740302 4.2492477,9.7291801 4.1218838,9.8023678 3.9889652,9.8651879 c 0,0 0.617632,-0.4940472 0.617632,-0.4940472 z"
     inkscape:connector-curvature="0" />
  <path
     sodipodi:type="arc"
     style="fill:#000000"
     id="path3091"
     sodipodi:cx="16.079866"
     sodipodi:cy="21.697172"
     sodipodi:rx="2.3960066"
     sodipodi:ry="2.5291181"
     d="m 18.475873,21.697172 a 2.3960066,2.5291181 0 1 1 -4.792013,0 2.3960066,2.5291181 0 1 1 4.792013,0 z"
     transform="translate(0,2)" />
  <path
     sodipodi:type="arc"
     style="fill:#000000"
     id="path3093"
     sodipodi:cx="26.569052"
     sodipodi:cy="15.65391"
     sodipodi:rx="2.3960066"
     sodipodi:ry="2.6622295"
     d="m 28.965058,15.65391 a 2.3960066,2.6622295 0 1 1 -4.792013,0 2.3960066,2.6622295 0 1 1 4.792013,0 z"
     transform="translate(0,2)" />
  <path
     style="fill:none;stroke:#000000;stroke-width:0.6769346px;stroke-linecap:butt;stroke-linejoin:miter;stroke-opacity:1"
     d="M 18.116503,23.510813 18.262896,7.8036608"
     id="path2985"
     inkscape:connector-curvature="0" />
  <path
     style="fill:none;stroke:#000000;stroke-width:0.6769346px;stroke-linecap:butt;stroke-linejoin:miter;stroke-opacity:1"
     d="M 28.638947,17.820298 28.78534,2.113146"
     id="path2985-9"
     inkscape:connector-curvature="0" />
  <path
     style="fill:none;stroke:#000000;stroke-width:1.07000804px;stroke-linecap:butt;stroke-linejoin:miter;stroke-opacity:1"
     d="M 18.248965,8.2239909 28.872499,1.7327479"
     id="path3005"
     inkscape:connector-curvature="0" />
</svg>
